name D:\school\WTK\thesis\model\3dpredictsim\Results\MidTarsalJoint\Fal_s1_bCst_PF_Natali2010_ls150_MT_k200_d010_MTP_T5_ig24.mot
datacolumns 128
datarows 4
range 0.00000000 0.03435863
endheader
time	pelvis_tilt	pelvis_list	pelvis_rotation	pelvis_tx	pelvis_ty	pelvis_tz	hip_flexion_l	hip_adduction_l	hip_rotation_l	hip_flexion_r	hip_adduction_r	hip_rotation_r	knee_angle_l	knee_angle_r	ankle_angle_l	ankle_angle_r	subtalar_angle_l	subtalar_angle_r	mtj_angle_l	mtj_angle_r	mtp_angle_l	mtp_angle_r	lumbar_extension	lumbar_bending	lumbar_rotation	arm_flex_l	arm_add_l	arm_rot_l	arm_flex_r	arm_add_r	arm_rot_r	elbow_flex_l	elbow_flex_r	pro_sup_l	pro_sup_r	glut_med1_l/activation	glut_med2_l/activation	glut_med3_l/activation	glut_min1_l/activation	glut_min2_l/activation	glut_min3_l/activation	semimem_l/activation	semiten_l/activation	bifemlh_l/activation	bifemsh_l/activation	sar_l/activation	add_long_l/activation	add_brev_l/activation	add_mag1_l/activation	add_mag2_l/activation	add_mag3_l/activation	tfl_l/activation	pect_l/activation	grac_l/activation	glut_max1_l/activation	glut_max2_l/activation	glut_max3_l/activation	iliacus_l/activation	psoas_l/activation	quad_fem_l/activation	gem_l/activation	peri_l/activation	rect_fem_l/activation	vas_med_l/activation	vas_int_l/activation	vas_lat_l/activation	med_gas_l/activation	lat_gas_l/activation	soleus_l/activation	tib_post_l/activation	flex_dig_l/activation	flex_hal_l/activation	tib_ant_l/activation	per_brev_l/activation	per_long_l/activation	per_tert_l/activation	ext_dig_l/activation	ext_hal_l/activation	ercspn_l/activation	intobl_l/activation	extobl_l/activation	glut_med1_r/activation	glut_med2_r/activation	glut_med3_r/activation	glut_min1_r/activation	glut_min2_r/activation	glut_min3_r/activation	semimem_r/activation	semiten_r/activation	bifemlh_r/activation	bifemsh_r/activation	sar_r/activation	add_long_r/activation	add_brev_r/activation	add_mag1_r/activation	add_mag2_r/activation	add_mag3_r/activation	tfl_r/activation	pect_r/activation	grac_r/activation	glut_max1_r/activation	glut_max2_r/activation	glut_max3_r/activation	iliacus_r/activation	psoas_r/activation	quad_fem_r/activation	gem_r/activation	peri_r/activation	rect_fem_r/activation	vas_med_r/activation	vas_int_r/activation	vas_lat_r/activation	med_gas_r/activation	lat_gas_r/activation	soleus_r/activation	tib_post_r/activation	flex_dig_r/activation	flex_hal_r/activation	tib_ant_r/activation	per_brev_r/activation	per_long_r/activation	per_tert_r/activation	ext_dig_r/activation	ext_hal_r/activation	ercspn_r/activation	intobl_r/activation	extobl_r/activation	
          0.00000000	         -2.92994086	         -2.26177685	          5.53804822	          0.00000000	          0.91851556	         -0.00176862	        -16.59267982	         -1.25170010	          6.76384237	         29.29022917	          3.45931662	         -2.33822517	         -8.63715132	        -10.56302802	         -2.87875111	          5.33406858	          8.66528283	         -4.54583588	          6.80989773	         -0.04239296	          7.89690823	         -0.84047198	         -1.96894418	          0.38880930	         -2.13649668	          5.02957987	        -13.45384774	         16.55954695	         -5.21061709	        -13.45471994	          6.33231332	         34.97145289	         16.58003005	         86.51662706	         86.51662706	          0.25426249	          0.10056561	          0.07908708	          0.28327627	          0.19405548	          0.10986530	          0.05000326	          0.05000071	          0.05000043	          0.05488113	          0.11533642	          0.06380201	          0.05002550	          0.05000250	          0.05000438	          0.05000161	          0.30577343	          0.07090739	          0.05000461	          0.05000477	          0.05000322	          0.05000273	          0.42962506	          0.63194287	          0.05000045	          0.05000107	          0.05000165	          0.26345262	          0.05000116	          0.05000118	          0.05000105	          0.28730694	          0.39226566	          0.35378462	          0.26848317	          0.24975743	          0.33104470	          0.05000010	          0.05954398	          0.12180322	          0.05000071	          0.05000017	          0.05000056	          0.05000004	          0.05000033	          0.05042244	          0.05954398	          0.05954400	          0.05000050	          0.05954411	          0.05954407	          0.05902615	          0.14739720	          0.06881254	          0.21190409	          0.05954205	          0.05000055	          0.14261161	          0.26668848	          0.13331733	          0.17733480	          0.10768203	          0.05000029	          0.05010104	          0.13059695	          0.05000252	          0.05456830	          0.15707845	          0.05000111	          0.05000031	          0.18925714	          0.27674975	          0.13362605	          0.05000044	          0.11063242	          0.10914026	          0.09862695	          0.06278617	          0.05617206	          0.05716004	          0.05000009	          0.05000167	          0.05000069	          0.48969009	          0.24707447	          0.16359356	          0.20359741	          0.45062250	          0.20511375	          0.05681662	          0.11976635	          0.10219885	
          0.01145288	         -2.92942224	         -2.33819648	          5.82032350	          0.01726654	          0.91755074	         -0.00157906	        -16.55770145	         -1.55273266	          6.57471202	         28.64947127	          3.80876452	         -2.10157732	        -10.39018266	        -10.85087187	         -3.36203548	          4.64967682	          9.66250500	         -4.92005264	          5.80545678	         -0.03780015	          9.67460995	         -0.84582454	         -1.76732518	          0.57642569	         -2.20596204	          4.74855274	        -13.46187994	         16.89083440	         -6.10195404	        -13.44971812	          6.13463916	         36.15451760	         16.16590696	         86.51662706	         86.51662706	          0.21350796	          0.08444644	          0.06641091	          0.23787141	          0.16295129	          0.09225557	          0.05000411	          0.05000105	          0.05000124	          0.05000043	          0.09685019	          0.13815742	          0.05711180	          0.05954495	          0.05953933	          0.05954378	          0.25676263	          0.05955042	          0.05008992	          0.05000657	          0.05000466	          0.05000688	          0.36076251	          0.59444098	          0.05127493	          0.05955119	          0.05954786	          0.22129304	          0.12929350	          0.11603967	          0.13685988	          0.24125576	          0.32939117	          0.31082343	          0.23113965	          0.20972587	          0.27798448	          0.05000008	          0.05000024	          0.13235774	          0.05000021	          0.05000007	          0.05000035	          0.05609951	          0.06606420	          0.05954449	          0.05000002	          0.05000009	          0.09917420	          0.05000009	          0.05000011	          0.05000013	          0.12377167	          0.05778298	          0.17793895	          0.05000022	          0.05952179	          0.11975388	          0.28178873	          0.30403697	          0.19876189	          0.11028221	          0.05000081	          0.07091013	          0.12675278	          0.05001060	          0.08517416	          0.13190203	          0.05000028	          0.06361604	          0.48121749	          0.23239079	          0.11220779	          0.05954611	          0.13043916	          0.13001283	          0.11287541	          0.06247620	          0.06225739	          0.05000012	          0.05954421	          0.05000499	          0.05954383	          0.46203014	          0.27643799	          0.20407581	          0.17096392	          0.41475056	          0.17223708	          0.05000001	          0.10056953	          0.08581784	
          0.02290575	         -2.92477520	         -2.41824975	          6.06984685	          0.03485471	          0.91664706	         -0.00141142	        -16.46815465	         -1.85462276	          6.37963362	         27.89125747	          4.06455673	         -1.83785636	        -12.21995199	        -11.38929664	         -3.96964363	          4.09982906	         10.61901751	         -5.31052064	          4.60237255	         -0.27484145	         11.61123873	         -0.84302509	         -1.54309012	          0.77723664	         -2.26295345	          4.38264069	        -13.46551469	         17.13797290	         -7.02351927	        -13.45262511	          5.99304534	         37.32079151	         15.80741149	         86.51662706	         86.51662706	          0.32711901	          0.07091097	          0.05605110	          0.32335537	          0.13683278	          0.07746845	          0.05000242	          0.05000034	          0.05000029	          0.05000044	          0.08132796	          0.11601288	          0.05000067	          0.05000121	          0.05000147	          0.05000105	          0.25879484	          0.05000753	          0.05000134	          0.05000966	          0.05000492	          0.05000208	          0.30293776	          0.56795096	          0.05000086	          0.05000707	          0.05000354	          0.18582311	          0.10857027	          0.09744083	          0.11492372	          0.20258592	          0.27659450	          0.26100288	          0.19409140	          0.17611010	          0.23342781	          0.05000004	          0.09288586	          0.15453337	          0.05000029	          0.05000015	          0.05000031	          0.05000011	          0.05547507	          0.05000040	          0.22898106	          0.22819511	          0.27976952	          0.34569875	          0.23070477	          0.21002545	          0.10800960	          0.06576705	          0.14941807	          0.08210042	          0.05000159	          0.10055914	          0.23662214	          0.25530436	          0.16690350	          0.11553584	          0.05000074	          0.05954621	          0.10643713	          0.05000083	          0.09756445	          0.11076047	          0.05632870	          0.05341951	          0.40408528	          0.19514207	          0.20572782	          0.05000176	          0.10953174	          0.10917376	          0.09478320	          0.05246228	          0.05227863	          0.05048851	          0.05000028	          0.05000067	          0.05000097	          0.53115658	          0.32271939	          0.17136631	          0.33278294	          0.48660971	          0.14463114	          0.05788467	          0.12120943	          0.07206248	
          0.03435863	         -2.91828255	         -2.49163575	          6.28208919	          0.05254531	          0.91584722	         -0.00121974	        -16.27758206	         -2.14599950	          6.19852076	         27.08891581	          4.29388374	         -1.57603817	        -14.18018814	        -11.89011565	         -4.72480548	          3.56451407	         11.54134849	         -5.70127664	          3.25723240	         -0.22234779	         13.61869527	         -0.79832798	         -1.32057823	          0.97934356	         -2.31059791	          3.96859204	        -13.47430530	         17.32695990	         -7.92775029	        -13.45585870	          5.90636556	         38.45082190	         15.48442432	         86.51662706	         86.51662706	          0.29662142	          0.05954501	          0.05000027	          0.27152744	          0.11490058	          0.06505145	          0.05000365	          0.05000041	          0.05000036	          0.05000042	          0.06829289	          0.12148770	          0.05000180	          0.05000204	          0.05000322	          0.05000132	          0.21731436	          0.06576360	          0.05000244	          0.05000397	          0.05000238	          0.05000156	          0.25438125	          0.52415325	          0.05000047	          0.05000157	          0.05000036	          0.15603837	          0.11706181	          0.11975224	          0.11975791	          0.17011429	          0.23226037	          0.21916785	          0.16298139	          0.14788236	          0.19601283	          0.05912548	          0.09110818	          0.15918199	          0.05000074	          0.11168246	          0.05000139	          0.07090465	          0.05000002	          0.05000006	          0.32639470	          0.32124449	          0.34564158	          0.29028846	          0.19372775	          0.19157133	          0.09069828	          0.07385809	          0.12546864	          0.06894129	          0.05000182	          0.08444101	          0.19869507	          0.21438303	          0.14015207	          0.15208414	          0.05000062	          0.05000282	          0.08937726	          0.20399020	          0.17064059	          0.14648913	          0.05000011	          0.05000013	          0.33931629	          0.16386371	          0.17275299	          0.05000012	          0.11256644	          0.12853919	          0.08878007	          0.05000005	          0.05000010	          0.05000001	          0.05000003	          0.05000019	          0.05000017	          0.59009118	          0.30316595	          0.16497747	          0.55413052	          0.52761946	          0.25717132	          0.07745978	          0.10178131	          0.06051191	
